<?xml version="1.0" encoding="UTF-8"?>
<svg xmlns="http://www.w3.org/2000/svg" width="1024" height="1024" viewBox="0 0 1024 1024" fill="none">
  <title>Notora — Layered Notebook App Icon</title>
  <desc>Full-bleed notebook icon. The front cover, inset page block and offset back cover fill the complete square canvas. No separate background or outer margin; the system supplies the final corner mask.</desc>
  <defs>
    <linearGradient id="cover" x1="280" y1="0" x2="800" y2="1024" gradientUnits="userSpaceOnUse">
      <stop stop-color="#7AD8E9"/><stop offset="1" stop-color="#43B2CC"/>
    </linearGradient>
    <linearGradient id="spine" x1="88" y1="0" x2="88" y2="1024" gradientUnits="userSpaceOnUse">
      <stop stop-color="#0B7D9D"/><stop offset="1" stop-color="#05617F"/>
    </linearGradient>
    <linearGradient id="back" x1="512" y1="0" x2="512" y2="1024" gradientUnits="userSpaceOnUse">
      <stop stop-color="#D88A31"/><stop offset="1" stop-color="#BD681D"/>
    </linearGradient>
    <linearGradient id="N-side" x1="300" y1="282" x2="740" y2="720" gradientUnits="userSpaceOnUse">
      <stop stop-color="#08748E"/><stop offset="1" stop-color="#055B76"/>
    </linearGradient>
    <linearGradient id="N-fold" x1="376" y1="278" x2="648" y2="744" gradientUnits="userSpaceOnUse">
      <stop stop-color="#28A0B7"/><stop offset="1" stop-color="#13819D"/>
    </linearGradient>
    <clipPath id="front-cover-clip"><path d="M0 -24H780C854 -24 914 36 914 110V742A164 164 0 0 1 750 906H164A164 164 0 0 1 0 742Z"/></clipPath>
  </defs>
  <g id="01-back-cover">
    <rect width="1024" height="1024" fill="url(#back)"/>
  </g>
  <g id="02-pages">
    <path d="M160 30H826A138 138 0 0 1 964 168V766A198 198 0 0 1 766 964H164A198 198 0 0 1 -34 766V168Q-34 30 160 30Z" fill="#E0ECE9"/>
    <path d="M148 24H824A132 132 0 0 1 956 156V766A190 190 0 0 1 766 956H164A190 190 0 0 1 -26 766V156Q-26 24 148 24Z" fill="#FFFEF9"/>
  </g>
  <g id="03-front-cover">
    <path d="M0 -24H780C854 -24 914 36 914 110V742A164 164 0 0 1 750 906H164A164 164 0 0 1 0 742Z" fill="url(#cover)"/>
  </g>
  <rect id="book-spine" x="0" y="0" width="146" height="1024" fill="url(#spine)" clip-path="url(#front-cover-clip)"/>
  <g id="04-notora-monogram" transform="translate(-1.6 -73.35) scale(1.05)">
    <path id="N-left-fold" d="M290 736V326C290 299.49 311.49 278 338 278H430V696C430 718.09 412.09 736 390 736H290Z" fill="url(#N-side)"/>
    <path id="N-right-fold" d="M594 328C594 300.39 616.39 278 644 278H734V696C734 718.09 716.09 736 694 736H594V328Z" fill="url(#N-side)"/>
    <path id="N-diagonal-fold" d="M338 278H430L734 696C734 718.09 716.09 736 694 736H594L290 326C290 299.49 311.49 278 338 278Z" fill="url(#N-fold)"/>
    <path id="N-fold-depth" d="M290 326L430 515V548L290 360Z" fill="#044A63" fill-opacity=".15"/>
  </g>
</svg>
